<svg width="33" height="26" viewBox="0 0 28 31" fill="none" xmlns="http://www.w3.org/2000/svg">
<path d="M5.25 0.25V1.5625H0.25V30.4375H27.75V1.5625H22.75V0.25H20.25V1.5625H7.75V0.25H5.25ZM2.75 4.1875H5.25V5.5H7.75V4.1875H20.25V5.5H22.75V4.1875H25.25V6.8125H2.75V4.1875ZM2.75 9.4375H25.25V27.8125H2.75V9.4375ZM10.25 12.0625V14.6875H12.75V12.0625H10.25ZM15.25 12.0625V14.6875H17.75V12.0625H15.25ZM20.25 12.0625V14.6875H22.75V12.0625H20.25ZM5.25 17.3125V19.9375H7.75V17.3125H5.25ZM10.25 17.3125V19.9375H12.75V17.3125H10.25ZM15.25 17.3125V19.9375H17.75V17.3125H15.25ZM20.25 17.3125V19.9375H22.75V17.3125H20.25ZM5.25 22.5625V25.1875H7.75V22.5625H5.25ZM10.25 22.5625V25.1875H12.75V22.5625H10.25ZM15.25 22.5625V25.1875H17.75V22.5625H15.25Z" fill="black"/>
</svg>
