<svg width="33" height="26" viewBox="0 0 33 26" fill="none" xmlns="http://www.w3.org/2000/svg">
<path d="M27.5215 12.8371V12.3952C28.3379 12.1005 28.9932 11.5481 29.4873 10.7378C29.9814 9.92753 30.2285 9.00677 30.2285 7.97552V4.88177C30.2285 3.50677 29.8418 2.3773 29.0684 1.49337C28.2949 0.609445 27.3066 0.16748 26.1035 0.16748C24.9434 0.16748 23.9658 0.609445 23.1709 1.49337C22.376 2.3773 21.9785 3.50677 21.9785 4.88177V7.97552C21.9785 9.00677 22.2363 9.92753 22.752 10.7378C23.2676 11.5481 23.9336 12.1005 24.75 12.3952V12.8371C23.5039 13.1809 22.3652 13.8684 21.334 14.8996C20.4746 13.9175 19.3145 13.23 17.8535 12.8371V12.3952C18.6699 12.1005 19.3359 11.5481 19.8516 10.7378C20.3672 9.92753 20.625 9.00677 20.625 7.97552V4.88177C20.625 3.50677 20.2275 2.3773 19.4326 1.49337C18.6377 0.609445 17.6602 0.16748 16.5 0.16748C15.3398 0.16748 14.3623 0.609445 13.5674 1.49337C12.7725 2.3773 12.375 3.50677 12.375 4.88177V7.97552C12.375 9.00677 12.6328 9.92753 13.1484 10.7378C13.6641 11.5481 14.3301 12.1005 15.1465 12.3952V12.8371C13.9004 13.1809 12.7402 13.8684 11.666 14.8996C10.6348 13.8684 9.49609 13.1809 8.25 12.8371V12.3952C9.06641 12.1005 9.73242 11.5481 10.248 10.7378C10.7637 9.92753 11.0215 9.00677 11.0215 7.97552V4.88177C11.0215 3.50677 10.624 2.3773 9.8291 1.49337C9.03418 0.609445 8.05664 0.16748 6.89648 0.16748C5.69336 0.16748 4.70508 0.609445 3.93164 1.49337C3.1582 2.3773 2.77148 3.50677 2.77148 4.88177V7.97552C2.77148 9.00677 3.01855 9.92753 3.5127 10.7378C4.00684 11.5481 4.66211 12.1005 5.47852 12.3952V12.8371C3.88867 13.23 2.57812 14.1507 1.54688 15.5994C0.515625 17.0481 0 18.7054 0 20.5715V25.2858H33V20.5715C33 18.7054 32.4844 17.0481 31.4531 15.5994C30.4219 14.1507 29.1113 13.23 27.5215 12.8371ZM5.47852 4.88177C5.47852 3.80141 5.95117 3.26123 6.89648 3.26123C7.2832 3.26123 7.60547 3.40855 7.86328 3.70319C8.12109 3.99784 8.25 4.3907 8.25 4.88177V7.97552C8.25 8.46659 8.12109 8.85944 7.86328 9.15409C7.60547 9.44873 7.2832 9.59605 6.89648 9.59605C5.95117 9.59605 5.47852 9.05587 5.47852 7.97552V4.88177ZM11.0215 22.1184H2.77148V20.5715C2.77148 19.2456 3.1582 18.1284 3.93164 17.2199C4.70508 16.3115 5.69336 15.8572 6.89648 15.8572C8.09961 15.8572 9.15234 16.4219 10.0547 17.5514C10.6992 18.4844 11.0215 19.4911 11.0215 20.5715V22.1184ZM15.1465 4.88177C15.1465 3.80141 15.5977 3.26123 16.5 3.26123C17.4023 3.26123 17.8535 3.80141 17.8535 4.88177V7.97552C17.8535 9.05587 17.4023 9.59605 16.5 9.59605C15.5977 9.59605 15.1465 9.05587 15.1465 7.97552V4.88177ZM20.625 22.1184H12.375V20.5715C12.375 19.442 12.6973 18.4353 13.3418 17.5514C14.2441 16.4219 15.2969 15.8572 16.5 15.8572C17.7031 15.8572 18.7559 16.4219 19.6582 17.5514C20.3027 18.4353 20.625 19.442 20.625 20.5715V22.1184ZM24.75 4.88177C24.75 4.3907 24.8789 3.99784 25.1367 3.70319C25.3945 3.40855 25.7168 3.26123 26.1035 3.26123C27.0488 3.26123 27.5215 3.80141 27.5215 4.88177V7.97552C27.5215 9.05587 27.0488 9.59605 26.1035 9.59605C25.7168 9.59605 25.3945 9.44873 25.1367 9.15409C24.8789 8.85944 24.75 8.46659 24.75 7.97552V4.88177ZM30.2285 22.1184H21.9785V20.5715C21.9785 19.4911 22.3008 18.4844 22.9453 17.5514C23.8477 16.4219 24.9004 15.8572 26.1035 15.8572C27.3066 15.8572 28.2949 16.3115 29.0684 17.2199C29.8418 18.1284 30.2285 19.2456 30.2285 20.5715V22.1184Z" fill="black"/>
</svg>
