<svg width="33" height="26" viewBox="0 0 30 30" fill="none" xmlns="http://www.w3.org/2000/svg">
<path d="M26.6875 21.375V16.0625C26.6869 15.4991 26.4629 14.9589 26.0645 14.5605C25.6661 14.1621 25.1259 13.9381 24.5625 13.9375H16.0625V8.625H19.25C19.8134 8.62444 20.3536 8.40037 20.752 8.00198C21.1504 7.60359 21.3744 7.06341 21.375 6.5V2.25C21.3744 1.68659 21.1504 1.14641 20.752 0.748019C20.3536 0.349626 19.8134 0.125563 19.25 0.125H10.75C10.1866 0.125563 9.64641 0.349626 9.24802 0.748019C8.84963 1.14641 8.62556 1.68659 8.625 2.25V6.5C8.62556 7.06341 8.84963 7.60359 9.24802 8.00198C9.64641 8.40037 10.1866 8.62444 10.75 8.625H13.9375V13.9375H5.4375C4.87409 13.9381 4.33391 14.1621 3.93552 14.5605C3.53713 14.9589 3.31306 15.4991 3.3125 16.0625V21.375H0.125V29.875H8.625V21.375H5.4375V16.0625H13.9375V21.375H10.75V29.875H19.25V21.375H16.0625V16.0625H24.5625V21.375H21.375V29.875H29.875V21.375H26.6875ZM10.75 2.25H19.25V6.5H10.75V2.25ZM6.5 27.75H2.25V23.5H6.5V27.75ZM17.125 27.75H12.875V23.5H17.125V27.75ZM27.75 27.75H23.5V23.5H27.75V27.75Z" fill="black"/>
</svg>
