<svg width="33" height="26" viewBox="0 0 27 28" fill="none" xmlns="http://www.w3.org/2000/svg">
<path d="M18.3214 7C18.3214 5.83968 17.8135 4.72688 16.9093 3.90641C16.0051 3.08594 14.7787 2.625 13.5 2.625C12.2213 2.625 10.9949 3.08594 10.0907 3.90641C9.18654 4.72688 8.67857 5.83968 8.67857 7C8.67857 8.16032 9.18654 9.27312 10.0907 10.0936C10.9949 10.9141 12.2213 11.375 13.5 11.375C14.7787 11.375 16.0051 10.9141 16.9093 10.0936C17.8135 9.27312 18.3214 8.16032 18.3214 7ZM5.78571 7C5.78571 5.14348 6.59847 3.36301 8.04518 2.05025C9.49189 0.737498 11.454 0 13.5 0C15.546 0 17.5081 0.737498 18.9548 2.05025C20.4015 3.36301 21.2143 5.14348 21.2143 7C21.2143 8.85652 20.4015 10.637 18.9548 11.9497C17.5081 13.2625 15.546 14 13.5 14C11.454 14 9.49189 13.2625 8.04518 11.9497C6.59847 10.637 5.78571 8.85652 5.78571 7ZM2.97121 25.375H24.0288C23.4924 21.9133 20.2138 19.25 16.2542 19.25H10.7458C6.78616 19.25 3.50759 21.9133 2.97121 25.375ZM0 26.3758C0 20.9891 4.80938 16.625 10.7458 16.625H16.2542C22.1906 16.625 27 20.9891 27 26.3758C27 27.2727 26.1984 28 25.21 28H1.78996C0.801563 28 0 27.2727 0 26.3758Z" fill="black"/>
</svg>
